# xmcd
#
# Track frame offsets: 
#        150
#        18332
#        29495
#        41512
#        56657
#        79817
#        97962
#        110940
#        127887
#        143505
#        157907
#        168682
#        180975
#        196617
#        213025
#        228630
#        241807
#        255795
#        272410
#        285082
#
# Disc length: 4031 seconds
#
# Revision: 3
# Processed by: cddbd v1.5.2PL0 Copyright (c) Steve Scherf et al.
# Submitted via: ExactAudioCopyFreeDBPlugin 1.0
#
DISCID=f60fbd14
DTITLE=Various Artist - Rhythm, Love and Soul^ The Sexiest Songs of R
DTITLE=&B [disc 2]
DYEAR=2003
DGENRE=Rhythm and Blues
TTITLE0=Smokey Robinson - Bring with You
TTITLE1=Brook Benton - It's Just a Matter of Time
TTITLE2=The Platters - Smoke Gets in Your Eyes
TTITLE3=The Platters - Twenty-Five Miles
TTITLE4=The Chi-Lites - Have You Seen Her
TTITLE5=Bloodstone - Natural High
TTITLE6=Percy Sledge - When a Man Loves a Woman
TTITLE7=Gladys Knight and The Pips - Best Thing That Ever Happened to Me
TTITLE8=Harold Melvin and The Blue Notes - If You Don't Know Me by Now
TTITLE9=Al Green - I'm Still in Love with You
TTITLE10=James Brown - Prisoner of Love
TTITLE11=Aretha Franklin - A Natural Woman
TTITLE12=The Delfonics - Didn't I (Blow Your Mind This Time)
TTITLE13=The Commodores - Thee Times a Lady
TTITLE14=Luther Ingram - I Don't Want to Be Right
TTITLE15=Otis Redding - I've Been Loving You Too Long
TTITLE16=The Four Tops - Ain't No Woman
TTITLE17=The Emotions - Best of My Love
TTITLE18=Tyrone Davis - Can I Change My Mind
TTITLE19=Marilyn McCoo and Billy Davis, Jr. - You Don't Have to Be a Sta
TTITLE19=r
EXTD=
EXTT0=
EXTT1=
EXTT2=
EXTT3=
EXTT4=
EXTT5=
EXTT6=
EXTT7=
EXTT8=
EXTT9=
EXTT10=
EXTT11=
EXTT12=
EXTT13=
EXTT14=
EXTT15=
EXTT16=
EXTT17=
EXTT18=
EXTT19=
PLAYORDER=
